# xmcd
#
# Track frame offsets:
#	150
#	11400
#	28247
#	45042
#	61962
#	77687
#	93640
#	110157
#	125812
#	143242
#	157457
#	171930
#	187792
#	203425
#	214802
#
# Disc length: 3077 seconds
#
# Revision: 4
# Processed by: cddbd v1.5.2PL0 Copyright (c) Steve Scherf et al.
# Submitted via: audiograbber 1.83.01
#
DISCID=d00c030f
DTITLE=The Judds - Give A Little Love
DYEAR=1987
DGENRE=Country
TTITLE0=Don't Be Cruel
TTITLE1=I'm Falling In Love Tonight
TTITLE2=Turn It Loose
TTITLE3=Old Pictures
TTITLE4=Cow Cow Boogie
TTITLE5=Maybe Your Baby's Got The Blues
TTITLE6=I Know Where I'm Going
TTITLE7=Why Don't You Believe Me
TTITLE8=The Sweetest Gift (A Mother's Smile)
TTITLE9=Give A Little Love To Me
TTITLE10=Had A Dream (For The Heart)
TTITLE11=John Deere Tractor
TTITLE12=Isn't He A Strange One
TTITLE13=Blue Nun Cafe
TTITLE14=Change Of Heart
EXTD=
EXTT0=
EXTT1=
EXTT2=
EXTT3=
EXTT4=
EXTT5=
EXTT6=
EXTT7=
EXTT8=
EXTT9=
EXTT10=
EXTT11=
EXTT12=
EXTT13=
EXTT14=
PLAYORDER=
